<?xml version="1.0" standalone="no"?>
<!DOCTYPE svg PUBLIC "-//W3C//DTD SVG 20010904//EN"
 "http://www.w3.org/TR/2001/REC-SVG-20010904/DTD/svg10.dtd">
<svg version="1.0" xmlns="http://www.w3.org/2000/svg"
 width="700.000000pt" height="700.000000pt" viewBox="0 0 700.000000 700.000000"
 preserveAspectRatio="xMidYMid meet">
<metadata>
Created by potrace 1.11, written by Peter Selinger 2001-2013
</metadata>
<g transform="translate(0.000000,700.000000) scale(0.100000,-0.100000)"
fill="#000000" stroke="none">
<path d="M6880 5899 c0 -20 -89 -98 -156 -135 -36 -20 -112 -52 -167 -71 -56
-20 -104 -37 -106 -39 -2 -2 -11 -45 -21 -96 -19 -98 -56 -224 -68 -232 -4 -2
-7 24 -8 58 -1 100 -21 206 -38 206 -15 0 -110 -57 -195 -117 -99 -70 -317
-294 -383 -393 -74 -112 -88 -149 -93 -245 -2 -44 -9 -102 -15 -130 -6 -27
-13 -58 -15 -67 -7 -33 -39 -133 -45 -141 -3 -4 -8 37 -9 90 -2 54 -4 109 -5
123 -2 14 -4 44 -4 68 -3 78 -20 71 -167 -74 -138 -136 -230 -284 -250 -404
-3 -19 -7 -35 -8 -36 -1 -1 -30 -13 -65 -27 -83 -34 -182 -101 -265 -180 l-68
-64 -107 34 c-59 19 -118 37 -132 39 -14 3 -41 9 -60 14 -19 5 -55 12 -80 15
-25 3 -52 8 -60 10 -76 20 -502 28 -650 12 -272 -30 -539 -87 -805 -173 -116
-38 -335 -122 -347 -133 -3 -3 -31 -143 -62 -311 -59 -323 -62 -342 -70 -368
-3 -9 -7 -28 -10 -42 -17 -95 -65 -280 -117 -450 -53 -170 -137 -324 -184
-336 -13 -3 -84 12 -166 36 -79 23 -200 57 -269 76 -69 19 -138 39 -155 45
-62 20 -565 163 -687 195 -158 41 -192 45 -350 49 -173 4 -288 -25 -360 -92
-26 -25 -26 -25 -11 -77 53 -179 203 -319 500 -464 130 -63 467 -185 575 -207
18 -4 51 -13 73 -20 41 -13 421 -99 485 -110 19 -3 71 -12 115 -20 44 -8 94
-17 110 -20 17 -2 41 -7 55 -10 13 -2 42 -7 65 -10 22 -4 83 -13 135 -21 52
-8 106 -17 120 -19 14 -2 50 -7 80 -10 30 -3 62 -8 70 -10 8 -2 44 -7 80 -10
36 -4 67 -8 70 -10 3 -2 45 -6 95 -10 49 -4 92 -8 95 -10 3 -2 41 -6 85 -9 44
-4 87 -9 95 -11 13 -3 124 -14 205 -20 32 -2 151 -13 225 -20 25 -2 75 -7 113
-10 37 -3 95 -7 130 -10 34 -3 100 -8 147 -10 47 -3 112 -7 145 -10 33 -3 105
-7 160 -10 55 -3 129 -7 165 -9 56 -4 194 -10 440 -21 249 -11 785 -24 1120
-26 238 -2 246 -2 290 21 116 59 249 173 306 260 16 25 32 47 35 50 14 11 71
147 90 214 46 159 34 404 -28 583 -86 249 -319 502 -616 668 -38 20 -71 44
-74 51 -3 7 4 38 16 68 89 238 234 451 430 629 33 30 40 43 36 60 -12 39 -63
141 -83 164 -29 33 -92 73 -116 73 -20 1 -20 1 -2 12 31 17 218 3 319 -25 l89
-24 60 76 c34 42 85 114 115 160 58 89 173 318 173 343 0 8 3 18 8 22 4 4 7
11 8 14 0 4 10 38 22 76 12 38 25 82 28 99 2 17 7 33 9 37 6 10 16 67 32 190
10 72 9 348 0 425 -5 33 -17 102 -27 154 -11 52 -20 96 -20 98 0 1 -4 3 -10 3
-5 0 -10 -5 -10 -11z m-105 -446 c-4 -16 -8 -35 -10 -43 -41 -199 -161 -478
-272 -632 -123 -170 -248 -265 -431 -324 -229 -75 -443 -319 -598 -681 -9 -21
-20 -47 -25 -58 -4 -11 -17 -47 -29 -80 -31 -93 -12 -3 25 116 82 262 189 487
298 628 123 159 231 238 376 276 273 71 497 324 628 712 36 107 54 147 38 86z
m-1782 -2115 c3 -13 28 -90 56 -173 109 -319 146 -513 144 -755 -1 -192 -43
-318 -140 -417 -83 -86 -163 -115 -318 -115 -81 -1 -316 11 -324 16 -3 2 -42
7 -86 11 -105 9 -164 16 -305 36 -41 6 -84 12 -95 14 -11 1 -38 5 -60 8 -22 4
-60 9 -85 12 -37 5 -177 28 -495 81 -103 17 -318 55 -360 64 -47 10 -140 28
-335 65 -47 9 -96 18 -110 21 -14 2 -36 7 -50 9 -14 3 -38 8 -55 11 -16 3 -60
12 -98 20 -37 8 -71 14 -73 14 -13 0 61 119 97 157 111 119 260 193 469 235
103 21 516 16 600 -7 8 -2 33 -7 55 -10 23 -3 52 -8 65 -10 14 -3 47 -10 74
-15 310 -62 854 -252 1244 -436 l95 -45 35 33 c142 137 196 450 138 798 -3 14
-7 41 -11 61 -6 36 -63 252 -83 317 -6 18 -7 30 -3 27 5 -2 11 -15 14 -27z"/>
</g>
</svg>
